<svg height="526" width="720" xmlns="http://www.w3.org/2000/svg">
<rect height="526" fill="#555" width="720"></rect>
<text fill="#7f7" font-family="Courier New" font-size="12" xml:space="preserve">
<tspan x="10" y="26">7 megabytes installed</tspan>
<tspan x="10" y="42"></tspan>
<tspan x="10" y="58">node_modules</tspan>
<tspan x="10" y="74">└─┬ copy-webpack-plugin@4.0.1 </tspan>
<tspan x="10" y="90">  ├── bluebird@2.11.0 </tspan>
<tspan x="10" y="106">  ├─┬ fs-extra@0.26.7 </tspan>
<tspan x="10" y="122">  │ ├── graceful-fs@4.1.11 </tspan>
<tspan x="10" y="138">  │ ├── jsonfile@2.4.0 </tspan>
<tspan x="10" y="154">  │ ├── klaw@1.3.1 </tspan>
<tspan x="10" y="170">  │ ├── path-is-absolute@1.0.1 </tspan>
<tspan x="10" y="186">  │ └─┬ rimraf@2.6.1 </tspan>
<tspan x="10" y="202">  │   └─┬ glob@7.1.1 </tspan>
<tspan x="10" y="218">  │     └── fs.realpath@1.0.0 </tspan>
<tspan x="10" y="234">  ├─┬ glob@6.0.4 </tspan>
<tspan x="10" y="250">  │ ├─┬ inflight@1.0.6 </tspan>
<tspan x="10" y="266">  │ │ └── wrappy@1.0.2 </tspan>
<tspan x="10" y="282">  │ ├── inherits@2.0.3 </tspan>
<tspan x="10" y="298">  │ └── once@1.4.0 </tspan>
<tspan x="10" y="314">  ├─┬ is-glob@3.1.0 </tspan>
<tspan x="10" y="330">  │ └── is-extglob@2.1.1 </tspan>
<tspan x="10" y="346">  ├─┬ loader-utils@0.2.17 </tspan>
<tspan x="10" y="362">  │ ├── big.js@3.1.3 </tspan>
<tspan x="10" y="378">  │ ├── emojis-list@2.1.0 </tspan>
<tspan x="10" y="394">  │ ├── json5@0.5.1 </tspan>
<tspan x="10" y="410">  │ └── object-assign@4.1.1 </tspan>
<tspan x="10" y="426">  ├── lodash@4.17.4 </tspan>
<tspan x="10" y="442">  ├─┬ minimatch@3.0.3 </tspan>
<tspan x="10" y="458">  │ └─┬ brace-expansion@1.1.7 </tspan>
<tspan x="10" y="474">  │   ├── balanced-match@0.4.2 </tspan>
<tspan x="10" y="490">  │   └── concat-map@0.0.1 </tspan>
<tspan x="10" y="506">  └── node-dir@0.1.16</tspan>
</text>
</svg>
